<svg width="140" height="109" viewBox="0 0 140 109" fill="none" xmlns="http://www.w3.org/2000/svg">
<path fill-rule="evenodd" clip-rule="evenodd" d="M66.2381 102.013C76.1297 99.1968 84.9641 93.5109 91.6242 85.6739L83.5001 77C82.4216 78.2691 81.2116 79.4958 79.9023 80.6613C72.6959 87.678 62.8528 92 52.0001 92C29.9087 92 12.0001 74.0914 12.0001 52C12.0001 29.9086 29.9087 12 52.0001 12C61.8807 12 70.9246 15.5825 77.9036 21.5194L85.674 12.376C77.8371 5.71591 68.2013 1.52931 57.985 0.345614C47.7687 -0.838084 37.4308 1.03428 28.2787 5.72594C19.1265 10.4176 11.5711 17.7178 6.56793 26.7035C1.56473 35.6891 -0.661561 45.9566 0.170586 56.2075C1.00273 66.4584 4.85594 76.2323 11.243 84.2933C17.63 92.3543 26.2639 98.3403 36.0529 101.494C45.842 104.648 56.3465 104.829 66.2381 102.013Z" fill="#62E048"/>
<path fill-rule="evenodd" clip-rule="evenodd" d="M123.762 107.777C129.849 106.044 135.286 102.545 139.384 97.7224L133.757 92.9406C129.242 98.2483 122.514 101.615 115 101.615C101.405 101.615 90.3847 90.5947 90.3847 77C90.3847 63.4053 101.405 52.3846 115 52.3846C121.08 52.3846 126.646 54.5892 130.941 58.2427L135.722 52.616C130.9 48.5175 124.97 45.9411 118.683 45.2127C112.396 44.4843 106.034 45.6365 100.402 48.5237C94.7702 51.4108 90.1207 55.9033 87.0418 61.4329C83.9629 66.9625 82.5929 73.2809 83.105 79.5892C83.6171 85.8974 85.9883 91.9122 89.9187 96.8728C93.8492 101.833 99.1624 105.517 105.186 107.458C111.21 109.399 117.675 109.51 123.762 107.777Z" fill="#62E048"/>
</svg>
